<?xml version="1.0" encoding="UTF-8" standalone="no"?><!DOCTYPE svg PUBLIC "-//W3C//DTD SVG 1.1//EN" "http://www.w3.org/Graphics/SVG/1.1/DTD/svg11.dtd"><svg width="100%" height="100%" viewBox="0 0 992 209" version="1.1" xmlns="http://www.w3.org/2000/svg" xmlns:xlink="http://www.w3.org/1999/xlink" xml:space="preserve" xmlns:serif="http://www.serif.com/" style="fill-rule:evenodd;clip-rule:evenodd;stroke-linejoin:round;stroke-miterlimit:2;"><g id="Schmitthub-Text" serif:id="Schmitthub Text"><g><path d="M970.958,1.603l-321.394,-0c-9.999,1.031 -15.499,6.656 -16.471,16.925l-0,169.923c0.962,10.253 6.45,15.856 16.382,16.929l321.562,0c9.936,-1.073 15.42,-6.68 16.384,-16.929l0,-169.923c-0.969,-10.269 -6.47,-15.894 -16.463,-16.925Z" style="fill:#ff9000;"/><path d="M745.099,166.584l0,-51.827c0,-16.822 -7.903,-34.306 -30.606,-34.306c-11.619,0 -20.376,6.221 -24.081,12.945l-0.337,0l0,-54.002l-27.575,-0l0,127.19l27.575,0l0,-45.264c0,-9.928 5.389,-17.837 14.988,-17.837c9.935,0 12.293,8.245 12.293,17.668l-0,45.433l27.743,0Z" style="fill-rule:nonzero;"/><path d="M847.743,166.584l0,-83.777l-27.575,-0l0,45.264c0,9.592 -5.22,18.005 -14.819,18.005c-10.104,0 -12.461,-8.413 -12.461,-17.836l-0,-45.433l-27.744,-0l0,51.827c0,16.822 7.903,34.306 30.438,34.306c11.788,-0 21.387,-6.557 25.259,-13.954l0.336,0l0,11.598l26.566,0Z" style="fill-rule:nonzero;"/><path d="M962.671,124.359c0,-23.398 -15.132,-43.908 -39.529,-43.908c-12.29,0 -20.877,5.716 -25.591,11.264l-0.336,-0l-0,-52.321l-27.576,-0l0,127.19l25.39,0l-0,-10.925l0.336,-0c5.385,8.405 16.328,13.281 27.44,13.281c25.238,-0 39.866,-21.183 39.866,-44.581Zm-26.565,-0c-0,10.943 -6.735,21.717 -19.867,21.717c-12.458,0 -20.201,-10.606 -20.201,-21.549c-0,-10.606 7.743,-21.549 20.201,-21.549c13.132,0 19.867,10.606 19.867,21.381Z" style="fill-rule:nonzero;"/></g><path d="M91.013,58.056c-10.426,-9.583 -25.559,-14.626 -39.025,-14.626c-22.222,-0 -46.099,10.928 -46.099,37.338c0,21.544 15.302,29.287 30.437,34.168c15.662,5.05 24.756,7.911 24.756,17c-0,9.594 -7.747,12.96 -16.504,12.96c-9.43,0 -20.024,-5.386 -25.741,-12.623l-18.837,19.18c10.429,10.928 27.58,17.148 44.578,17.148c23.566,0 45.593,-12.273 45.593,-39.695c0,-23.732 -20.85,-30.633 -37.004,-35.851c-11.283,-3.535 -18.356,-6.059 -18.356,-13.97c-0,-9.426 9.262,-11.95 16.672,-11.95c7.41,-0 16.325,4.039 21.201,10.267l18.329,-19.346Z" style="fill-rule:nonzero;"/><path d="M181.373,90.367c-6.562,-6.725 -19.182,-11.264 -31.13,-11.264c-26.076,-0 -46.757,17.316 -46.757,44.581c-0,27.769 20.513,44.581 46.926,44.581c12.283,-0 24.062,-4.035 30.961,-10.76l-15.312,-18.67c-3.366,4.041 -9.423,6.229 -14.976,6.229c-12.116,0 -19.688,-9.764 -19.688,-21.38c0,-11.616 7.741,-21.549 19.351,-21.549c5.553,-0 11.611,2.694 14.64,6.734l15.985,-18.502Z" style="fill-rule:nonzero;"/><path d="M275.267,165.572l0,-51.827c0,-16.821 -7.902,-34.306 -30.606,-34.306c-11.619,0 -20.376,6.221 -24.081,12.945l-0.337,0l0,-54.002l-27.575,-0l0,127.19l27.575,0l0,-45.264c0,-9.928 5.389,-17.837 14.988,-17.837c9.936,0 12.293,8.246 12.293,17.669l0,45.432l27.743,0Z" style="fill-rule:nonzero;"/><path d="M430.748,165.572l0,-51.827c0,-15.813 -7.734,-34.306 -30.438,-34.306c-12.462,0 -21.219,5.548 -26.771,14.29c-4.707,-9.078 -13.115,-14.29 -25.223,-14.29c-12.63,0 -21.219,6.893 -25.091,13.954l-0.337,-0l0,-11.6l-26.734,0l-0,83.779l27.743,0l0,-45.432c0,-10.097 5.052,-18.005 13.81,-18.005c8.252,-0 11.956,6.057 11.956,15.649l0,47.788l27.576,0l-0,-45.264c-0,-9.423 4.547,-18.173 13.977,-18.173c9.768,-0 11.957,8.077 11.957,17.668l0,45.769l27.575,0Z" style="fill-rule:nonzero;"/><path d="M481.566,55.03c-0,-8.408 -7.063,-15.134 -15.807,-15.134c-8.913,0 -15.807,7.063 -15.807,15.134c-0,8.239 6.894,15.134 15.807,15.134c8.744,-0 15.807,-6.558 15.807,-15.134Zm-2.02,110.542l0,-83.798l-27.575,0l0,83.798l27.575,0Z" style="fill-rule:nonzero;"/><path d="M551.061,102.471l-0,-20.676l-19.688,0l0,-22.043l-27.07,-0l-0,22.043l-13.293,0l-0,20.676l13.461,0l0,35.354c0,17.831 7.398,29.767 29.763,29.767c5.889,-0 12.283,-1.177 15.985,-2.522l-0.336,-20.174c-2.019,0.841 -5.385,1.346 -8.077,1.346c-7.909,0 -10.433,-4.04 -10.433,-11.784l0,-31.987l19.688,0Z" style="fill-rule:nonzero;"/><path d="M609.618,102.471l0,-20.676l-19.687,0l-0,-22.043l-27.07,-0l-0,22.043l-13.294,0l0,20.676l13.462,0l-0,35.354c-0,17.831 7.398,29.767 29.762,29.767c5.89,-0 12.284,-1.177 15.986,-2.522l-0.336,-20.174c-2.02,0.841 -5.385,1.346 -8.077,1.346c-7.909,0 -10.433,-4.04 -10.433,-11.784l-0,-31.987l19.687,0Z" style="fill-rule:nonzero;"/></g></svg>