<?xml version="1.0" encoding="UTF-8" standalone="no"?><!DOCTYPE svg PUBLIC "-//W3C//DTD SVG 1.1//EN" "http://www.w3.org/Graphics/SVG/1.1/DTD/svg11.dtd"><svg width="100%" height="100%" viewBox="0 0 923 370" version="1.1" xmlns="http://www.w3.org/2000/svg" xmlns:xlink="http://www.w3.org/1999/xlink" xml:space="preserve" xmlns:serif="http://www.serif.com/" style="fill-rule:evenodd;clip-rule:evenodd;stroke-linejoin:round;stroke-miterlimit:2;"><g id="Steamboat-Willie" serif:id="Steamboat Willie"><path id="path9" d="M306.878,155.927c-1.386,1.989 -2.575,4.025 -4.064,5.809c-1.81,2.167 -3.843,4.151 -5.841,6.152c-0.867,0.869 -1.898,1.571 -2.833,2.376c-0.239,0.206 -0.393,0.513 -0.586,0.774c0.269,0.147 0.522,0.358 0.809,0.429c5.783,1.441 11.551,2.952 17.363,4.262c3.768,0.849 7.207,2.375 10.397,4.47c3.14,2.062 5.926,4.577 8.179,7.598c1.63,2.184 3.219,4.433 4.525,6.819c1.961,3.58 3.286,7.434 3.59,11.549c0.192,2.601 0.49,5.252 0.199,7.818c-0.364,3.209 -1.261,6.36 -1.971,9.525c-0.647,2.882 -1.377,5.745 -2.027,8.626c-0.572,2.541 -1.075,5.098 -1.625,7.644c-0.728,3.364 -1.459,6.728 -2.211,10.087c-0.628,2.807 -1.299,5.604 -1.93,8.411c-0.396,1.759 -0.747,3.528 -1.131,5.29c-0.075,0.347 -0.102,0.838 -0.332,0.995c-1.942,1.327 -1.736,3.506 -1.892,5.352c-0.396,4.66 0.206,9.264 1.722,13.713c1.477,4.331 3.615,8.309 6.425,11.918c3.768,4.839 8.362,8.689 13.974,11.142c2.516,1.1 5.256,1.679 7.893,2.501c2.447,0.763 4.953,1.38 7.324,2.336c4.385,1.769 8.379,4.3 12.028,7.278c4.775,3.897 8.893,8.434 11.482,14.126c1.039,2.286 1.637,4.732 1.861,7.301c0.44,5.025 -0.923,9.501 -3.957,13.376c-2.033,2.597 -4.638,4.663 -7.574,6.281c-2.922,1.608 -5.988,2.835 -9.19,3.679c-2.054,0.54 -4.174,0.873 -6.284,1.142c-2.169,0.278 -4.36,0.382 -6.545,0.52c-0.382,0.025 -0.877,-0.039 -1.144,-0.269c-0.355,-0.306 -0.833,-0.927 -0.726,-1.21c0.167,-0.444 0.75,-0.967 1.21,-1.024c2.732,-0.339 5.524,-0.326 8.209,-0.867c3.168,-0.639 6.298,-1.576 9.353,-2.648c3.821,-1.34 7.183,-3.515 9.902,-6.575c2.061,-2.319 3.371,-5.017 3.907,-8.1c0.806,-4.633 -0.574,-8.717 -2.774,-12.722c-1.817,-3.309 -4.181,-6.123 -6.912,-8.627c-5.009,-4.593 -10.652,-8.26 -17.016,-10.647c-2.403,-0.901 -5.002,-1.335 -7.546,-1.786c-2.701,-0.48 -5.152,-1.598 -7.463,-2.925c-3.404,-1.954 -6.577,-4.302 -9.267,-7.205c-2.625,-2.833 -4.91,-5.916 -6.803,-9.319c-2.102,-3.78 -3.598,-7.801 -4.36,-11.992c-0.587,-3.222 -1.076,-6.571 -0.356,-9.906c0.214,-0.991 0.345,-2.007 0.41,-3.019c0.014,-0.223 -0.458,-0.706 -0.637,-0.675c-1.013,0.177 -2.032,0.404 -2.992,0.765c-0.361,0.137 -0.69,0.636 -0.833,1.041c-2.32,6.587 -4.59,13.193 -6.909,19.781c-1.755,4.985 -3.561,9.951 -5.356,14.922c-0.119,0.332 -0.408,0.615 -0.473,0.949c-0.058,0.294 0.007,0.684 0.172,0.925c0.107,0.155 0.491,0.157 0.752,0.161c1.765,0.033 3.532,0.085 5.296,0.058c1.899,-0.029 3.628,0.568 5.338,1.29c2.823,1.191 6.191,4.439 6.008,8.284c-0.002,0.042 -0,0.085 -0,0.128c-0,1.965 0.353,2.05 2.309,1.75c1.867,-0.287 3.826,-0.66 5.66,0.495c1.922,1.21 2.606,3.052 2.717,5.124c0.226,4.21 -1.496,7.91 -3.356,11.517c-1.785,3.465 -4.07,6.609 -6.661,9.514c-1.458,1.634 -2.91,3.292 -4.523,4.763c-1.938,1.768 -4.046,3.348 -6.078,5.012c-0.165,0.135 -0.31,0.295 -0.464,0.443c0.21,0.108 0.414,0.292 0.632,0.312c4.084,0.386 8.094,1.205 11.929,2.624c1.979,0.731 3.892,1.824 5.6,3.077c2.881,2.111 1.879,5.169 -0.964,6.621c-2.376,1.213 -4.912,1.764 -7.477,2.279c-5.593,1.122 -11.268,0.952 -16.893,0.699c-6.59,-0.296 -13.121,-1.374 -19.298,-3.848c-2.214,-0.887 -4.416,-2.011 -5.559,-4.428c-0.205,-0.434 -0.985,-0.805 -1.52,-0.835c-4.531,-0.257 -8.985,-0.948 -13.207,-2.633c-2.113,-0.843 -4.324,-1.787 -6.027,-3.234c-2.313,-1.965 -2.498,-5.001 0.806,-6.704c0.946,-0.487 1.452,-1.034 0.935,-2.2c-0.738,-1.661 -0.123,-3.258 0.494,-4.812c1.031,-2.6 2.093,-5.187 3.117,-7.79c0.099,-0.253 0.115,-0.628 -0,-0.862c-2.24,-4.545 -0.038,-7.525 3.489,-9.643c3.433,-2.061 7.234,-3.24 11.248,-3.626c0.647,-0.062 1.355,-0.028 1.916,-0.292c0.544,-0.257 1.153,-0.759 1.355,-1.296c0.907,-2.412 2.428,-4.281 4.425,-5.87c0.594,-0.472 0.939,-1.368 1.197,-2.137c2.076,-6.178 4.066,-12.386 6.156,-18.559c2.164,-6.392 4.41,-12.755 6.62,-19.131c0.078,-0.224 0.104,-0.482 0.233,-0.669c0.632,-0.916 0.222,-1.189 -0.691,-1.188c-1.87,0.002 -3.75,0.124 -5.607,-0.03c-2.506,-0.207 -5.005,-0.585 -7.191,-2.016c-2.691,-1.763 -2.803,-5.616 -0.218,-7.431c0.157,-0.11 0.247,-0.317 0.368,-0.478c-0.216,-0.095 -0.444,-0.291 -0.647,-0.267c-2.022,0.23 -4.044,0.473 -6.055,0.782c-0.231,0.036 -0.579,0.503 -0.566,0.755c0.24,4.867 -3.456,7.019 -7.128,7.894c-3.973,0.946 -7.94,0.615 -11.874,-0.437c-1.026,-0.275 -1.882,-0.223 -2.671,0.987c-3.582,5.492 -7.337,10.871 -11.041,16.282c-3.207,4.684 -6.421,9.363 -9.649,14.033c-1.996,2.886 -4.026,5.749 -6.036,8.625c-0.916,1.312 -0.871,1.603 0.611,1.979c1.971,0.499 3.629,1.427 4.631,3.218c1.012,1.811 0.197,4.512 -1.488,5.772c-2.863,2.142 -2.644,1.598 -0.36,3.835c1.826,1.789 2.966,3.959 3.36,6.405c0.382,2.367 -0.568,4.48 -2.217,6.209c-0.59,0.618 -0.65,1.003 -0.132,1.799c1.768,2.715 0.607,4.847 -1.673,6.563c-2.647,1.991 -5.696,2.908 -8.947,3.353c-3.744,0.513 -7.476,0.65 -11.081,-0.581c-1.396,-0.477 -2.65,-1.454 -3.858,-2.353c-0.449,-0.335 -0.674,-1.073 -0.835,-1.672c-0.193,-0.723 -0.407,-1.082 -1.147,-0.558c-2.552,1.809 -5.477,2.568 -8.519,2.818c-3.363,0.276 -6.747,0.57 -10.113,0.48c-3.648,-0.097 -7.283,-0.647 -10.927,-0.963c-4.411,-0.382 -8.618,-1.69 -12.862,-2.826c-2.834,-0.759 -5.37,-2.113 -7.428,-4.219c-1.525,-1.56 -2.291,-3.625 -0.543,-5.703c0.021,-0.025 -0.011,-0.115 0.004,-0.122c1.941,-0.837 1.303,-2.51 1.271,-3.975c-0.096,-4.281 0.268,-8.566 2.364,-12.318c2.31,-4.137 5.778,-6.814 10.875,-6.989c2.987,-0.103 5.617,1.049 8.379,1.708c5.395,1.289 10.734,2.81 16.096,4.235c0.651,0.173 1.401,0.199 1.931,0.554c0.922,0.62 1.198,-0.11 1.313,-0.617c0.618,-2.707 2.508,-4.265 4.736,-5.571c2.822,-1.654 5.898,-2.142 9.102,-2.035c0.605,0.02 1.268,0.026 1.795,0.273c1.259,0.593 1.806,-0.04 2.444,-1.016c4.654,-7.118 9.387,-14.183 14.037,-21.303c3.236,-4.956 6.361,-9.985 9.575,-14.955c1.419,-2.195 2.922,-4.337 4.417,-6.482c0.472,-0.677 0.506,-1.147 -0.146,-1.789c-1.616,-1.589 -3.28,-3.165 -4.656,-4.954c-1.836,-2.386 -1.647,-2.8 0.429,-5.035c1.633,-1.758 3.122,-3.651 4.712,-5.452c0.565,-0.64 0.36,-1.067 -0.145,-1.597c-4.535,-4.754 -7.753,-10.31 -9.619,-16.598c-0.975,-3.285 -1.28,-6.71 -1.134,-10.155c0.095,-2.225 0.137,-4.453 0.268,-6.676c0.121,-2.065 0.434,-4.125 0.444,-6.188c0.003,-0.753 -0.624,-1.509 -0.965,-2.263c-1.232,-2.73 -2.658,-5.391 -3.65,-8.206c-1.262,-3.583 -2.252,-7.27 -3.193,-10.954c-0.345,-1.349 -0.232,-2.819 -0.289,-4.235c-0.03,-0.74 -0.18,-1.001 -1.05,-0.809c-2.16,0.478 -4.357,0.78 -6.536,1.173c-2.173,0.391 -4.338,0.824 -6.512,1.207c-2.184,0.385 -4.376,0.726 -6.563,1.095c-2.104,0.355 -4.209,0.711 -6.31,1.085c-2.214,0.394 -4.425,0.809 -6.637,1.218c-2.685,0.496 -5.367,1.01 -8.054,1.489c-2.578,0.46 -5.164,0.872 -7.741,1.33c-2.689,0.477 -5.37,1.001 -8.06,1.474c-2.185,0.384 -4.38,0.715 -6.567,1.084c-2.104,0.355 -4.206,0.721 -6.306,1.095c-2.215,0.394 -4.427,0.81 -6.643,1.202c-0.64,0.113 -1.316,0.088 -1.927,0.28c-0.943,0.297 -1.163,1.132 -1.173,2.017c-0.016,1.536 0.023,3.072 -0.01,4.607c-0.065,3.037 -0.127,6.074 -0.26,9.108c-0.117,2.662 -0.291,5.323 -0.509,7.979c-0.303,3.701 -0.614,7.402 -1.025,11.092c-0.443,3.977 -0.909,7.955 -1.54,11.904c-0.744,4.655 -1.704,9.274 -2.503,13.921c-0.175,1.017 -0.047,1.995 0.846,2.847c3.946,3.767 6.89,8.247 9.374,13.107c1.859,3.637 3.294,7.398 3.992,11.387c0.58,3.318 0.645,6.702 -0.978,9.848c-1.11,2.153 -4.049,3.879 -7.058,3.346c-4.289,-0.76 -7.508,-3.15 -10.575,-5.912c-1.211,-1.091 -2.238,-2.387 -3.353,-3.585c-0.612,-0.658 -0.774,-0.159 -0.982,0.366c-0.565,1.428 -1.1,2.873 -1.756,4.26c-1.604,3.388 -3.159,6.807 -4.938,10.102c-2.112,3.912 -4.593,7.58 -7.513,10.972c-3.091,3.591 -6.548,6.69 -10.819,8.697c-3.966,1.864 -8.138,2.488 -12.539,1.458c-2.233,-0.522 -4.268,-1.375 -6.314,-2.337c-0.844,-0.397 -1.878,-0.495 -2.832,-0.526c-2.222,-0.073 -4.451,0.043 -6.672,-0.043c-1.973,-0.076 -3.942,-0.304 -5.909,-0.504c-0.548,-0.055 -1.107,-0.189 -1.619,-0.394c-0.79,-0.316 -1.155,0.182 -1.249,0.743c-0.476,2.844 -0.956,5.691 -1.28,8.555c-0.565,5.008 -1.989,9.715 -4.959,13.803c-2.083,2.868 -4.704,5.263 -8.297,6.033c-2.928,0.628 -5.746,0.321 -8.123,-1.894c-2.866,-2.671 -4.016,-6.003 -4.443,-9.822c-0.475,-4.242 0.39,-8.211 1.488,-12.242c1.062,-3.894 1.752,-7.89 2.653,-11.831c0.281,-1.232 0.789,-2.413 1.052,-3.648c0.109,-0.509 0.047,-1.363 -0.277,-1.608c-2.475,-1.878 -4.223,-4.347 -5.889,-6.901c-3.727,-5.716 -6.19,-12.016 -8.115,-18.506c-1.583,-5.34 -2.838,-10.782 -4.1,-16.212c-0.818,-3.525 -1.461,-7.095 -2.042,-10.668c-0.459,-2.825 -0.756,-5.681 -1.031,-8.532c-0.39,-4.034 -0.694,-8.077 -1.032,-12.116c-0.173,-2.062 -0.375,-4.123 -0.498,-6.188c-0.078,-1.305 -0.302,-1.471 -1.453,-0.932c-2.991,1.401 -5.925,2.962 -9.008,4.12c-3.707,1.393 -7.609,1.436 -11.271,-0.107c-3.469,-1.462 -5.856,-4.087 -6.591,-7.971c-1.061,-5.607 0.972,-10.218 4.404,-14.477c2.644,-3.281 6.062,-5.501 9.715,-7.343c2.692,-1.358 5.6,-2.28 8.393,-3.442c1.742,-0.724 3.525,-1.4 5.145,-2.347c1.237,-0.724 0.571,-2.117 0.553,-3.24c-0.005,-0.277 -0.145,-0.552 -0.148,-0.829c-0.094,-7.558 -0.251,-15.116 -0.233,-22.674c0.01,-4.281 0.264,-8.564 0.496,-12.841c0.178,-3.268 0.432,-6.535 0.767,-9.791c0.348,-3.372 0.843,-6.728 1.255,-10.094c0.273,-2.238 0.452,-4.489 0.785,-6.718c0.351,-2.351 0.784,-4.693 1.271,-7.02c0.629,-3.013 1.265,-6.029 2.053,-9.002c0.638,-2.404 1.495,-4.749 2.281,-7.112c0.11,-0.331 0.348,-0.63 0.565,-0.914c0.686,-0.898 0.519,-1.465 -0.528,-1.963c-3.664,-1.743 -6.195,-4.648 -8.225,-8.101c-1.699,-2.891 -3.544,-5.696 -5.319,-8.542c-1.795,-2.879 -3.691,-5.702 -5.34,-8.663c-1.225,-2.2 -1.873,-4.66 -2.065,-7.195c-0.139,-1.838 -0.344,-3.693 -0.232,-5.522c0.247,-4.057 1.652,-7.593 5.174,-9.972c2.413,-1.63 5.086,-1.62 7.734,-0.943c2.953,0.754 5.546,2.451 7.428,4.734c2.172,2.635 3.884,5.675 5.612,8.647c1.446,2.488 2.621,5.134 3.94,7.698c0.121,0.236 0.412,0.385 0.624,0.574c0.104,-0.262 0.201,-0.528 0.312,-0.786c0.874,-2.026 1.688,-4.08 2.639,-6.069c2.954,-6.185 7.097,-11.5 12.178,-16.041c4.689,-4.192 10.125,-7.167 16.326,-8.266c4.56,-0.808 9.177,-0.51 13.717,0.743c1.389,0.383 2.945,0.174 4.425,0.211c1.661,0.042 3.332,-0.044 4.98,0.12c1,0.099 1.953,0.624 2.953,0.828c0.257,0.052 0.862,-0.359 0.889,-0.604c0.602,-5.482 2.035,-10.768 4.173,-15.808c1.66,-3.914 3.768,-7.666 7.086,-10.48c2.521,-2.138 5.364,-3.268 8.71,-1.955c2.046,0.802 3.389,2.379 4.541,4.143c2.139,3.276 2.938,6.991 3.613,10.79c0.776,4.363 0.673,8.761 0.391,13.098c-0.428,6.572 -1.718,13.035 -4.432,19.117c-0.594,1.332 -1.297,2.618 -1.829,3.974c-0.193,0.493 -0.234,1.233 -0.001,1.679c4.463,8.526 7.977,17.437 10.657,26.669c1.661,5.724 3.14,11.504 4.594,17.286c0.956,3.8 1.774,7.638 2.548,11.481c0.385,1.915 0.514,3.882 0.803,5.818c0.059,0.393 0.319,0.755 0.486,1.132c0.223,-0.264 0.484,-0.505 0.665,-0.796c1.462,-2.354 3.562,-4.019 5.925,-5.328c2.841,-1.574 5.883,-2.495 9.151,-2.871c7.065,-0.814 13.453,0.695 19.172,4.987c3.223,2.419 5.561,5.506 6.498,9.426c0.416,1.742 0.145,3.654 0.158,5.489c0.004,0.644 0.005,1.11 0.897,1.145c2.907,0.113 5.81,0.311 8.714,0.496c0.775,0.049 1.544,0.177 2.318,0.241c0.187,0.015 0.382,-0.083 0.574,-0.129c-0.123,-0.205 -0.203,-0.459 -0.374,-0.607c-1.657,-1.431 -3.457,-2.719 -4.97,-4.286c-3.416,-3.539 -6.163,-7.535 -7.316,-12.427c-0.484,-2.054 -0.337,-4.123 0.143,-6.179c0.089,-0.381 0.056,-1.001 -0.183,-1.216c-1.844,-1.654 -3.826,-3.157 -5.623,-4.857c-2.722,-2.575 -5.804,-4.863 -7.613,-8.257c-1.906,-3.575 -1.194,-7.992 1.629,-10.429c2.416,-2.085 5.205,-2.61 8.39,-2.091c2.568,0.418 4.705,1.587 6.391,3.303c1.512,1.538 2.558,3.577 3.634,5.494c1.137,2.026 2.086,4.161 3.075,6.269c0.297,0.634 0.512,0.904 1.334,0.641c3.744,-1.194 7.337,-0.355 10.847,1.06c0.862,0.348 1.304,0.155 1.896,-0.647c1.777,-2.411 3.664,-4.75 5.639,-7.002c1.892,-2.157 3.846,-4.28 5.951,-6.223c4.327,-3.99 8.986,-7.551 14.25,-10.244c0.594,-0.304 1.218,-0.547 1.829,-0.819c-0.477,-0.452 -0.96,-0.898 -1.429,-1.358c-2.908,-2.85 -5.555,-5.901 -7.301,-9.634c-1.363,-2.914 -2.05,-5.913 -0.867,-9.066c1.169,-3.114 3.792,-4.158 6.76,-4.439c2.162,-0.205 4.344,-0.077 6.448,0.704c0.636,0.236 1.255,-0.006 1.591,-0.795c1.478,-3.458 3.569,-6.485 6.607,-8.738c2.029,-1.504 4.102,-2.976 6.284,-4.238c2.735,-1.581 5.772,-2.349 8.893,-2.859c4.663,-0.761 9.256,-0.453 13.67,1.109c2.02,0.714 3.818,2.088 5.667,3.242c0.729,0.456 1.356,1.095 1.971,1.709c0.672,0.672 1.178,0.411 1.674,-0.179c0.397,-0.472 0.751,-0.985 1.178,-1.427c3.297,-3.412 6.6,-6.819 9.918,-10.21c0.798,-0.816 0.997,-1.586 0.228,-2.559c-2.136,-2.704 -3.442,-5.824 -4.054,-9.183c-0.966,-5.299 0.023,-10.298 3.058,-14.747c3.11,-4.558 7.435,-7.45 12.755,-8.986c2.941,-0.849 5.908,-1.315 8.917,-1.204c6.333,0.235 12.151,2.091 17.306,5.935c3.677,2.742 6.602,6.035 8.441,10.28c1.251,2.888 2.051,5.761 1.582,9.019c-0.456,3.167 0.098,6.372 0.809,9.488c0.43,1.886 1.073,3.727 1.693,5.563c0.395,1.167 1.07,2.135 2.26,2.692c2.01,0.94 3.779,2.316 4.821,4.242c1.69,3.125 1.152,6.46 -2.258,8.791c-1.549,1.059 -3.271,1.657 -5.122,2.132c-2.542,0.653 -4.466,2.17 -5.929,4.654c-2.058,3.495 -5.515,5.342 -9.557,6.047c-2.19,0.382 -4.257,0.218 -6.357,-0.483c-0.483,-0.162 -1.376,0.152 -1.754,0.555c-3.895,4.157 -7.699,8.399 -11.58,12.569c-1.735,1.864 -3.595,3.611 -5.371,5.437c-0.196,0.203 -0.214,0.58 -0.315,0.877c0.296,-0.065 0.649,-0.048 0.878,-0.209c3.723,-2.612 7.9,-4.028 12.349,-4.679c2.264,-0.331 4.554,-0.793 6.821,-0.733c8.438,0.224 16.26,2.4 23.09,7.668c3.694,2.849 6.584,6.306 8.581,10.484c1.245,2.604 1.965,5.358 2.241,8.3c0.435,4.634 -0.583,8.889 -2.636,12.926c-1.843,3.627 -4.647,6.489 -7.849,8.946c-3.541,2.716 -7.596,4.403 -11.854,5.551c-1.866,0.504 -3.844,0.593 -5.774,0.849c-0.854,0.113 -1.713,0.237 -2.572,0.251c-4.954,0.08 -9.78,-0.693 -14.444,-2.375c-0.939,-0.339 -1.277,-0.047 -1.62,0.816c-1.396,3.515 -2.687,7.09 -4.367,10.466c-1.677,3.372 -3.773,6.534 -5.75,9.852m-171.944,-18.621c0.255,1.82 0.513,3.64 0.764,5.46c0.428,3.108 0.888,6.212 1.264,9.326c0.312,2.575 0.562,5.159 0.767,7.744c0.293,3.688 0.565,7.379 0.761,11.072c0.156,2.948 0.176,5.902 0.279,8.852c0.014,0.394 0.065,0.848 0.274,1.154c0.174,0.254 0.631,0.503 0.918,0.459c2.39,-0.359 4.766,-0.803 7.152,-1.185c0.874,-0.14 1.415,-0.408 1.356,-1.473c-0.144,-2.607 -0.177,-5.219 -0.279,-7.828c-0.059,-1.501 -0.162,-3.001 -0.251,-4.501c-0.253,-4.246 -0.494,-8.492 -0.771,-12.736c-0.13,-1.979 -0.278,-3.961 -0.516,-5.93c-0.377,-3.114 -0.863,-6.214 -1.254,-9.327c-0.297,-2.363 -0.399,-4.756 -0.801,-7.099c-0.665,-3.88 -1.502,-7.73 -2.268,-11.592c-0.766,-3.862 -1.336,-7.777 -2.347,-11.573c-1.796,-6.739 -3.674,-13.468 -5.873,-20.082c-1.75,-5.263 -3.891,-10.411 -6.125,-15.492c-1.429,-3.253 -3.3,-6.314 -5.046,-9.42c-2.283,-4.062 -5.094,-7.758 -8.278,-11.133c-1.611,-1.707 -3.471,-3.205 -5.349,-4.623c-2.999,-2.264 -6.393,-3.707 -10.144,-4.125c-3.654,-0.408 -7.117,0.46 -10.33,2.133c-5.409,2.816 -9.392,7.228 -12.792,12.177c-2.699,3.929 -5.124,8.036 -6.942,12.467c-1.794,4.373 -3.669,8.719 -5.28,13.16c-1.295,3.567 -2.307,7.241 -3.335,10.899c-0.776,2.762 -1.415,5.564 -2.049,8.363c-0.665,2.932 -1.286,5.874 -1.863,8.824c-0.612,3.125 -1.203,6.257 -1.7,9.402c-0.422,2.661 -0.699,5.345 -1.037,8.02c-0.512,4.053 -1.081,8.101 -1.511,12.164c-0.349,3.296 -0.567,6.609 -0.774,9.919c-0.217,3.467 -0.493,6.939 -0.493,10.409c0.002,8.896 0.106,17.792 0.247,26.686c0.052,3.344 0.285,6.687 0.501,10.026c0.208,3.225 0.47,6.446 0.763,9.664c0.302,3.318 0.631,6.634 1.024,9.942c0.369,3.115 0.803,6.223 1.272,9.325c0.557,3.683 1.116,7.368 1.792,11.03c0.868,4.7 1.643,9.434 2.84,14.053c1.668,6.442 3.546,12.839 5.606,19.166c1.548,4.754 3.443,9.4 5.33,14.034c2.141,5.258 4.84,10.26 7.961,14.979c2.878,4.352 6.173,8.439 10.325,11.679c1.888,1.474 3.839,3.051 6.024,3.914c2.817,1.112 5.855,1.608 9.001,1.216c3.408,-0.426 6.447,-1.608 9.279,-3.503c2.97,-1.989 5.406,-4.527 7.705,-7.23c2.777,-3.264 5.164,-6.807 7.029,-10.649c2.235,-4.606 4.465,-9.243 6.246,-14.035c2.092,-5.626 3.833,-11.395 5.473,-17.174c1.177,-4.148 1.99,-8.404 2.872,-12.631c0.821,-3.939 1.583,-7.893 2.252,-11.86c0.454,-2.697 0.692,-5.431 1.044,-8.146c0.414,-3.195 0.897,-6.382 1.258,-9.583c0.324,-2.872 0.551,-5.756 0.772,-8.639c0.206,-2.7 0.401,-5.402 0.505,-8.107c0.138,-3.589 0.173,-7.181 0.276,-10.772c0.021,-0.738 0.189,-1.473 0.19,-2.209c0.001,-0.223 -0.295,-0.581 -0.517,-0.639c-0.398,-0.105 -0.854,-0.092 -1.266,-0.02c-2.293,0.405 -4.572,0.892 -6.871,1.254c-1.74,0.273 -2.033,0.488 -1.99,2.242c0.038,1.587 0.26,3.174 0.227,4.757c-0.126,6.159 -0.268,12.318 -0.516,18.473c-0.117,2.928 -0.407,5.856 -0.762,8.767c-0.422,3.467 -0.85,6.946 -1.545,10.365c-0.985,4.851 -2.009,9.712 -3.393,14.458c-1.714,5.877 -3.995,11.568 -7.078,16.887c-2.978,5.139 -6.461,9.853 -11.657,12.977c-5.006,3.01 -10.224,3.455 -15.601,1.035c-5.151,-2.318 -8.894,-6.287 -11.908,-10.883c-2.317,-3.533 -4.272,-7.329 -6.131,-11.134c-1.414,-2.894 -2.626,-5.923 -3.566,-9.004c-1.3,-4.258 -2.367,-8.597 -3.334,-12.947c-0.986,-4.437 -1.832,-8.911 -2.546,-13.4c-0.516,-3.244 -0.793,-6.532 -1.033,-9.811c-0.263,-3.591 -0.464,-7.193 -0.503,-10.793c-0.041,-3.802 0.142,-7.608 0.227,-11.412c0.085,-3.846 0.155,-7.694 0.261,-11.54c0.044,-1.587 0.148,-3.172 0.252,-4.757c0.245,-3.734 0.522,-7.466 0.755,-11.201c0.121,-1.925 0.164,-3.854 0.267,-5.78c0.055,-1.033 0.136,-2.066 0.255,-3.093c0.324,-2.804 0.689,-5.604 1.01,-8.408c0.276,-2.409 0.446,-4.831 0.787,-7.23c0.439,-3.083 0.999,-6.149 1.514,-9.221c0.507,-3.03 0.909,-6.083 1.563,-9.082c0.908,-4.165 2.038,-8.281 3.02,-12.431c1.7,-7.183 4.081,-14.131 7.152,-20.832c2.549,-5.561 5.479,-10.872 10.245,-14.921c3.781,-3.211 8.598,-4.308 13.155,-1.997c2.325,1.179 4.458,2.715 5.976,4.933c1.773,2.589 3.711,5.084 5.264,7.8c3.144,5.502 5.294,11.46 7.137,17.499c1.555,5.091 2.84,10.271 4.091,15.448c0.756,3.126 1.236,6.321 1.81,9.49c0.532,2.941 1.025,5.889 1.535,9.09m168.565,129.262c0.111,-0.043 0.218,-0.114 0.331,-0.124c2.911,-0.261 5.842,-0.38 8.728,-0.807c3.649,-0.54 7.277,-1.255 10.879,-2.053c1.274,-0.283 2.617,-0.785 2.87,-2.483c0.182,-1.223 0.524,-2.422 0.793,-3.632c0.719,-3.241 1.443,-6.481 2.155,-9.723c0.729,-3.323 1.436,-6.652 2.172,-9.973c0.622,-2.809 1.283,-5.61 1.906,-8.418c0.668,-3.01 1.354,-6.016 1.951,-9.039c0.594,-3.007 1.269,-6.016 1.556,-9.058c0.184,-1.943 -0.236,-3.951 -0.452,-5.922c-0.337,-3.077 -1.345,-5.983 -2.673,-8.736c-2.152,-4.459 -4.864,-8.557 -8.801,-11.664c-2.059,-1.625 -4.168,-3.211 -6.389,-4.598c-2.588,-1.617 -5.522,-1.77 -8.494,-1.442c-2.485,0.274 -5.007,0.337 -7.451,0.813c-3.902,0.759 -7.804,1.609 -11.614,2.735c-6.455,1.908 -12.749,4.284 -18.713,7.462c-4.528,2.414 -9.199,4.596 -13.55,7.296c-6.581,4.085 -12.701,8.826 -17.938,14.612c-0.337,0.372 -0.703,0.877 -0.733,1.342c-0.153,2.406 -0.284,4.819 -0.269,7.228c0.027,4.342 1.458,8.394 3.4,12.134c2.506,4.828 5.772,9.158 9.984,12.742c4.038,3.436 8.34,6.347 13.24,8.41c3.918,1.649 7.964,2.875 12.156,3.231c4.463,0.38 8.972,0.234 13.255,-1.468c0.635,-0.252 1.345,-0.297 1.635,0.35c0.126,0.281 -0.337,0.907 -0.641,1.29c-1.174,1.484 -2.561,2.829 -3.544,4.427c-0.892,1.45 -0.776,2.245 0.857,3.376c2.181,1.512 4.789,1.529 7.28,1.78c1.977,0.198 3.99,0.04 6.114,-0.088m-81.222,-148.332c0.552,0.793 1.167,1.551 1.627,2.394c0.186,0.341 0.036,0.868 0.038,1.31c-0.465,-0.121 -1.098,-0.089 -1.367,-0.388c-1.266,-1.404 -2.388,-2.939 -3.645,-4.352c-2.316,-2.604 -4.978,-4.834 -8.027,-6.496c-3.459,-1.885 -7.048,-3.379 -11.174,-2.233c-0.856,0.238 -0.91,0.649 -0.723,1.231c0.327,1.01 0.906,1.954 1.123,2.98c0.377,1.781 1.225,3.49 0.624,5.44c-0.83,2.694 -2.65,3.753 -5.393,2.754c-1.508,-0.549 -2.915,-1.377 -4.381,-2.048c-0.651,-0.298 -1.444,-0.837 -1.494,0.571c-0.012,0.353 -0.203,0.698 -0.225,1.052c-0.199,3.233 0.934,6.069 2.531,8.8c2.612,4.466 6.231,7.933 10.314,11.022c3.172,2.4 6.667,4.169 10.308,5.626c2.265,0.906 4.671,1.613 7.078,1.963c2.6,0.378 5.275,0.235 7.917,0.323c2.473,0.082 4.945,0.157 7.417,0.26c1.411,0.059 2.819,0.194 4.23,0.245c2.868,0.105 5.808,0.607 8.59,0.154c3.56,-0.579 7.024,-1.844 10.473,-2.987c4.741,-1.572 9.187,-3.829 13.319,-6.627c2.229,-1.51 4.225,-3.363 6.358,-5.021c0.382,-0.296 1.046,-0.658 1.35,-0.511c0.347,0.167 0.657,0.902 0.598,1.337c-0.206,1.506 -0.455,3.029 -0.911,4.475c-1.726,5.482 -4.365,10.535 -7.575,15.27c-1.6,2.36 -3.466,4.536 -5.196,6.808c-0.16,0.21 -0.205,0.509 -0.304,0.767c0.268,0.054 0.561,0.207 0.8,0.147c1.574,-0.395 3.125,-0.892 4.706,-1.253c4.152,-0.947 8.233,-0.984 12.049,1.274c2.191,1.297 3.797,3.06 4.112,5.715c0.157,1.322 2.803,2.6 3.873,1.769c1.527,-1.185 3.081,-2.362 4.448,-3.721c1.868,-1.855 3.703,-3.773 5.31,-5.853c2.118,-2.739 4.363,-5.478 5.904,-8.546c2.766,-5.509 4.628,-11.337 3.695,-17.705c-0.505,-3.446 -1.668,-6.595 -3.938,-9.239c-3.922,-4.568 -9.142,-6.336 -14.948,-6.696c-2.73,-0.17 -5.417,0.199 -8.101,0.736c-3.472,0.693 -6.858,1.699 -9.992,3.286c-3.111,1.575 -5.994,3.6 -9.024,5.344c-0.469,0.27 -1.408,0.354 -1.751,0.067c-0.647,-0.54 -0.054,-1.161 0.46,-1.513c1.782,-1.222 3.587,-2.412 5.409,-3.572c1.407,-0.897 3.055,-1.516 4.245,-2.635c3.516,-3.302 6.09,-7.313 7.97,-11.763c1.791,-4.238 2.621,-8.601 1.876,-13.222c-0.62,-3.847 -2.481,-6.973 -5.423,-9.379c-3.69,-3.016 -8.175,-3.985 -12.786,-4.161c-2.134,-0.081 -4.302,0.392 -6.437,0.725c-3.539,0.551 -6.914,1.691 -10.116,3.28c-2.018,1.001 -3.925,2.227 -5.902,3.316c-0.568,0.314 -1.337,0.67 -1.678,-0.157c-0.148,-0.361 0.261,-1.026 0.547,-1.469c0.207,-0.319 0.623,-0.504 0.954,-0.737c0.888,-0.626 0.578,-1.237 -0.126,-1.661c-0.359,-0.216 -0.981,-0.307 -1.349,-0.144c-1.836,0.808 -3.68,1.624 -5.423,2.612c-4.182,2.37 -7.849,5.436 -11.282,8.783c-0.259,0.253 -0.398,0.972 -0.23,1.267c1.036,1.818 0.794,3.837 0.499,5.637c-0.639,3.897 -2.456,7.376 -4.913,10.471c-0.458,0.578 -0.399,0.859 0.056,1.355c1.005,1.096 1.937,2.259 3.026,3.523m-159.258,152.939c-1.111,-3.76 -2.318,-7.495 -3.311,-11.287c-1.442,-5.514 -2.856,-11.041 -4.045,-16.614c-0.96,-4.503 -1.6,-9.077 -2.325,-13.628c-0.639,-4.011 -1.254,-8.028 -1.777,-12.056c-0.424,-3.26 -0.73,-6.537 -1.028,-9.812c-0.297,-3.26 -0.557,-6.525 -0.764,-9.792c-0.217,-3.424 -0.384,-6.853 -0.511,-10.282c-0.128,-3.461 -0.24,-6.924 -0.246,-10.387c-0.005,-2.951 0.146,-5.902 0.238,-8.852c0.165,-5.305 0.311,-10.61 0.52,-15.912c0.102,-2.577 0.303,-5.151 0.505,-7.723c0.226,-2.882 0.474,-5.763 0.767,-8.64c0.303,-2.976 0.634,-5.951 1.022,-8.917c0.375,-2.859 0.802,-5.712 1.273,-8.556c0.733,-4.422 1.327,-8.881 2.334,-13.241c1.431,-6.197 3.005,-12.373 4.841,-18.46c2.614,-8.668 5.918,-17.087 10.438,-24.958c2.99,-5.204 6.315,-10.186 10.967,-14.104c2.123,-1.788 4.095,-3.817 6.95,-4.483c0.243,-0.056 0.41,-0.444 0.612,-0.678c-0.211,-0.108 -0.414,-0.289 -0.633,-0.311c-2.905,-0.296 -5.769,-0.709 -8.743,-0.331c-3.495,0.443 -6.793,1.416 -9.873,2.991c-5.476,2.8 -10.004,6.831 -13.729,11.711c-3.66,4.796 -6.337,10.157 -8.54,15.767c-0.438,1.115 -0.136,2.012 0.453,2.939c1.133,1.785 2.332,3.539 3.32,5.403c1.9,3.586 2.363,7.459 1.552,11.399c-0.443,2.151 -1.593,4.087 -3.3,5.517c-2.154,1.803 -4.689,2.796 -7.522,2.404c-1.9,-0.262 -2.822,0.785 -3.385,2.207c-1.045,2.639 -2.056,5.311 -2.794,8.047c-0.783,2.901 -1.254,5.888 -1.821,8.845c-0.539,2.811 -1.089,5.623 -1.517,8.452c-0.35,2.311 -0.525,4.649 -0.786,6.973c-0.421,3.749 -0.877,7.493 -1.263,11.245c-0.229,2.227 -0.39,4.463 -0.512,6.698c-0.203,3.724 -0.478,7.451 -0.49,11.177c-0.02,6.378 0.128,12.757 0.234,19.134c0.034,2.013 0.118,4.029 0.288,6.034c0.03,0.361 0.677,1.017 0.893,0.962c2.455,-0.63 4.92,-0.605 7.365,-0.131c3.475,0.672 6.312,2.376 8.015,5.611c2.142,4.069 1.689,8.223 -0.096,12.2c-1.826,4.069 -4.956,7.138 -8.66,9.525c-2.048,1.32 -4.341,2.251 -6.461,3.468c-0.496,0.285 -0.829,0.98 -1.06,1.557c-0.123,0.308 0.186,0.765 0.21,1.16c0.185,3 0.309,6.004 0.53,9.001c0.2,2.713 0.451,5.425 0.766,8.127c0.372,3.2 0.777,6.398 1.278,9.579c0.615,3.908 1.227,7.823 2.056,11.689c0.918,4.283 1.909,8.566 3.175,12.755c1.874,6.197 3.993,12.318 7.24,17.975c1.724,3.002 3.638,5.837 6.24,8.157c0.69,0.616 1.102,0.6 1.708,-0.237c1.088,-1.503 2.204,-3.082 3.635,-4.213c1.29,-1.021 2.957,-1.873 4.563,-2.123c5.108,-0.796 8.414,2.924 10.139,6.79c1.335,2.992 1.89,6.098 1.802,9.373c-0.051,1.895 0.409,2.459 2.16,2.681c3.375,0.428 6.769,0.715 10.157,1.042c0.548,0.052 1.107,0.034 1.656,-0.009c0.173,-0.013 0.332,-0.213 0.497,-0.328c-0.094,-0.12 -0.163,-0.282 -0.284,-0.356c-2.881,-1.741 -4.961,-4.301 -7.087,-6.84c-3.398,-4.059 -6.161,-8.532 -8.638,-13.181c-3.734,-7.01 -6.615,-14.393 -9.198,-22.153m240.608,-226.144c1.391,0.543 2.825,1.001 4.159,1.662c0.816,0.404 1.028,1.04 0.382,2.024c-2.756,4.199 -5.835,8.089 -9.748,11.276c-3.317,2.7 -6.795,5.015 -11.124,5.81c-3.513,0.645 -6.11,-0.001 -7.969,-2.987c-0.585,-0.939 -0.91,-0.703 -1.447,-0.133c-1.443,1.532 -2.874,3.076 -4.33,4.596c-2.545,2.658 -5.11,5.296 -7.657,7.953c-0.643,0.67 0.268,3.855 1.157,4.095c0.079,0.021 0.169,0.001 0.254,0.003c4.086,0.094 7.764,1.642 11.365,3.351c2.813,1.334 5.626,2.72 8.26,4.371c2.733,1.713 5.303,3.707 7.843,5.707c1.288,1.015 2.362,2.308 3.517,3.49c0.416,0.424 0.8,0.813 1.325,0.162c0.694,-0.862 1.341,-1.767 2.081,-2.586c3.62,-4.005 7.269,-7.985 10.899,-11.98c2.502,-2.753 4.985,-5.522 7.485,-8.276c3.601,-3.965 7.201,-7.932 10.82,-11.879c2.385,-2.602 4.821,-5.156 7.196,-7.766c0.535,-0.588 0.986,-1.283 1.347,-1.994c0.783,-1.545 0.335,-3.106 -0.148,-4.62c-1.288,-4.03 -3.903,-7.225 -6.69,-10.256c-1.547,-1.682 -3.335,-3.153 -5.089,-4.63c-3.446,-2.901 -7.227,-5.259 -11.594,-6.481c-0.908,-0.254 -2.031,-0.703 -2.952,0.152c-0.469,0.436 -0.868,0.945 -1.315,1.405c-3.664,3.768 -7.337,7.526 -10.992,11.301c-0.872,0.9 -1.688,1.855 -2.529,2.785c-0.463,0.513 -0.321,0.885 0.273,1.14c1.697,0.728 3.395,1.451 5.221,2.305m-115.012,291.031c0.39,0.085 0.776,0.199 1.171,0.251c2.62,0.35 5.238,0.723 7.864,1.02c3.34,0.378 6.683,0.917 10.031,0.975c4.09,0.071 8.188,-0.258 12.281,-0.464c2.311,-0.116 4.625,-0.272 6.926,-0.517c3.083,-0.327 6.018,-1.232 8.533,-3.08c2.637,-1.937 3.444,-4.007 2.499,-6.962c-0.811,-2.534 -2.636,-4.439 -4.718,-6.044c-0.261,-0.2 -0.803,-0.133 -1.188,-0.056c-1.601,0.324 -3.229,0.589 -4.774,1.098c-0.883,0.29 -1.602,0.142 -1.706,-0.601c-0.11,-0.789 0.653,-1.102 1.503,-1.267c3.042,-0.594 6.041,-1.428 8.537,-3.371c1.679,-1.306 2.567,-3.228 0.409,-4.799c-0.937,-0.681 -2.143,-0.977 -3.179,-1.536c-1.214,-0.654 -1.908,0.123 -2.46,0.922c-0.554,0.8 -1.165,1.735 -1.239,2.652c-0.099,1.218 -0.448,2.339 -1.527,2.562c-1.23,0.255 -2.493,0.52 -3.736,0.496c-2.099,-0.041 -4.226,-0.14 -6.279,-0.537c-1.271,-0.246 -2.521,-0.953 -3.606,-1.705c-0.938,-0.65 -0.603,-1.874 0.4,-2.342c0.518,-0.242 1.044,-0.594 1.397,-1.032c0.757,-0.94 1.416,-1.96 2.09,-2.964c0.253,-0.377 0.622,-0.831 -0.305,-0.864c-1.383,-0.05 -2.77,-0.292 -4.144,-0.221c-3.379,0.172 -6.234,1.541 -8.497,4.103c-1.233,1.396 -1.169,3.546 0.081,4.891c1.419,1.528 3.272,1.917 5.193,2.28c0.551,0.104 1.437,0.668 1.433,1.013c-0.006,0.7 -0.785,0.778 -1.46,0.749c-3.211,-0.137 -5.913,-1.2 -7.638,-4.114c-0.116,-0.195 -0.297,-0.433 -0.492,-0.486c-1.686,-0.453 -3.389,-0.846 -5.075,-1.299c-4.398,-1.182 -8.787,-2.394 -13.184,-3.576c-2.603,-0.701 -5.182,-1.573 -7.83,-2.003c-3.845,-0.624 -8.523,1.883 -10.375,5.499c-2.03,3.963 -2.686,8.221 -2.294,12.643c0.033,0.373 0.193,0.859 0.465,1.065c1.053,0.798 2.097,1.687 3.29,2.203c1.765,0.763 3.624,1.362 5.495,1.811c5.27,1.262 10.566,2.412 16.108,3.607m-102.644,-72.31c-0.17,0.527 -0.458,1.047 -0.485,1.581c-0.055,1.045 -0.503,2.028 0.191,3.158c2.251,3.663 4.983,6.904 8.15,9.764c2.033,1.836 2.528,1.758 4.458,-0.264c1.466,-1.536 2.982,-3.057 4.214,-4.775c2.36,-3.29 4.714,-6.611 6.743,-10.11c2.798,-4.824 4.907,-9.992 6.219,-15.433c0.4,-1.66 1.148,-3.425 0.34,-5.146c-1.742,-3.713 -3.546,-7.397 -5.397,-11.057c-1.41,-2.787 -3.006,-5.48 -4.383,-8.283c-2.05,-4.173 -4.021,-8.386 -5.923,-12.628c-0.354,-0.789 -0.619,-1.337 -1.529,-1.192c-0.986,0.157 -2.096,0.314 -2.371,1.466c-0.439,1.838 -0.69,3.721 -1.051,5.579c-0.558,2.877 -1.148,5.748 -1.712,8.623c-0.457,2.327 -0.909,4.656 -1.341,6.988c-0.44,2.378 -0.82,4.768 -1.286,7.141c-0.648,3.304 -1.349,6.598 -2.033,9.896c-0.505,2.432 -1.047,4.856 -1.521,7.294c-0.462,2.374 -0.858,4.761 -1.283,7.398m-2.04,-124.655c1.051,1.909 2.075,3.834 3.162,5.722c1.211,2.104 2.48,4.174 3.723,6.259c0.427,0.717 1.141,1.405 1.223,2.162c0.301,2.772 0.399,5.567 0.557,8.355c0.036,0.637 0.029,1.28 -0.001,1.918c-0.044,0.956 0.386,1.484 1.305,1.729c1.564,0.416 3.105,0.927 4.677,1.312c0.247,0.061 0.787,-0.265 0.88,-0.524c0.569,-1.6 0.937,-3.28 1.588,-4.843c0.834,-2.005 1.448,-4.202 3.503,-5.446c0.076,-0.046 0.006,-0.568 -0.062,-0.584c-0.321,-0.075 -0.682,-0.125 -0.997,-0.05c-3.074,0.731 -5.971,0.154 -8.677,-1.327c-0.881,-0.482 -1.617,-1.325 -1.448,-2.556c0.348,-2.544 0.695,-5.089 1.018,-7.637c0.274,-2.152 0.484,-4.312 0.777,-6.461c0.395,-2.898 0.86,-5.787 1.261,-8.684c0.286,-2.065 0.481,-4.142 0.78,-6.205c0.389,-2.686 0.874,-5.358 1.256,-8.045c0.306,-2.147 0.492,-4.311 0.782,-6.461c0.398,-2.94 0.834,-5.875 1.273,-8.81c0.215,-1.44 0.522,-2.867 0.696,-4.311c0.216,-1.785 0.644,-3.541 -0.876,-5.147c-2.217,-2.344 -4.239,-4.874 -6.337,-7.331c-0.595,-0.697 -1.245,-0.764 -1.742,0.006c-1.036,1.605 -2.111,3.204 -2.938,4.919c-1.489,3.084 -2.85,6.233 -4.188,9.388c-2.294,5.408 -3.804,11.072 -5.261,16.746c-0.844,3.286 -1.544,6.61 -2.31,9.917c-0.409,1.766 -0.751,3.516 0.502,5.128c0.313,0.404 0.523,0.888 0.772,1.339c1.702,3.088 3.402,6.178 5.102,9.522m-66.177,58.488c-0.22,0.086 -0.447,0.157 -0.659,0.258c-4.411,2.102 -8.693,4.405 -11.628,8.511c-2.485,3.476 -4.233,7.198 -3.405,11.68c0.614,3.319 2.525,5.718 5.545,6.881c4.07,1.568 8.223,1.107 12.157,-0.708c3.252,-1.501 6.408,-3.209 9.635,-4.766c3.696,-1.783 7.499,-3.281 10.598,-6.194c2.447,-2.3 4.334,-4.816 5.446,-7.987c0.97,-2.765 1.115,-5.463 -0.122,-8.157c-2.436,-5.3 -8.668,-6.527 -13.458,-5.158c-2.852,0.815 -5.542,2.202 -8.303,3.338c-1.853,0.762 -3.701,1.534 -5.806,2.302m187.564,-27.004c1.832,-0.299 3.662,-0.601 5.494,-0.895c2.153,-0.345 4.316,-0.636 6.452,-1.066c0.408,-0.082 1.067,-0.782 1.004,-1.056c-0.565,-2.447 -0.998,-4.898 -0.697,-7.413c0.192,-1.607 0.457,-3.209 0.77,-4.797c0.166,-0.846 0.018,-1.254 -0.922,-1.293c-3.499,-0.145 -6.997,-0.33 -10.495,-0.502c-3.456,-0.169 -6.911,-0.359 -10.368,-0.506c-2.683,-0.114 -5.372,-0.106 -8.049,-0.292c-1.237,-0.086 -1.777,0.558 -2.324,1.449c-1.024,1.67 -1.923,3.462 -3.191,4.928c-3.22,3.724 -7.177,6.332 -12.027,7.568c-3.472,0.885 -6.954,1.255 -10.46,0.642c-3.477,-0.609 -6.826,-1.7 -9.805,-3.713c-0.609,-0.412 -1.059,-0.366 -0.973,0.542c0.074,0.776 0.221,1.548 0.244,2.325c0.105,3.674 0.18,7.349 0.263,11.023c0.008,0.384 -0.115,0.822 0.031,1.138c0.177,0.383 0.606,0.965 0.874,0.938c1.436,-0.144 2.857,-0.45 4.283,-0.701c2.415,-0.426 4.827,-0.874 7.247,-1.274c2.274,-0.375 4.561,-0.672 6.834,-1.053c2.855,-0.478 5.697,-1.033 8.552,-1.504c2.317,-0.383 4.651,-0.659 6.968,-1.041c2.895,-0.477 5.781,-1.016 8.671,-1.527c1.862,-0.328 3.72,-0.681 5.588,-0.972c1.965,-0.305 3.939,-0.549 6.036,-0.948m123.428,162.537c0,-0.085 -0.033,-0.191 0.005,-0.253c1.626,-2.698 2.808,-5.577 3.506,-8.651c0.208,-0.917 0.149,-1.763 -1.002,-1.968c-2.973,-0.53 -5.934,-1.219 -8.932,-1.482c-2.403,-0.211 -4.857,0.052 -7.281,0.221c-1.234,0.085 -2.476,0.334 -3.669,0.672c-2.274,0.645 -4.605,1.207 -6.75,2.168c-2.75,1.232 -5.383,2.697 -6.786,5.711c-1.118,2.402 -2.542,4.661 -3.842,6.977c-2.098,3.735 -4.169,7.486 -6.32,11.19c-1.561,2.688 -3.238,5.309 -4.847,7.97c-0.132,0.219 -0.137,0.516 -0.201,0.777c0.23,-0.001 0.471,0.042 0.689,-0.011c0.846,-0.206 1.678,-0.474 2.529,-0.662c3.001,-0.664 6.005,-1.311 9.011,-1.951c3.01,-0.64 6.02,-1.282 9.036,-1.889c2.956,-0.595 5.885,-1.202 8.643,-2.541c3.907,-1.897 7.26,-4.51 10.008,-7.815c2.193,-2.637 4.062,-5.546 6.203,-8.463m-32.132,-12.286c0.476,-0.477 0.883,-1.071 1.443,-1.406c0.872,-0.52 1.816,-1.103 2.786,-1.236c2.808,-0.384 5.645,-0.556 8.471,-0.814c3.725,-0.34 7.45,-0.681 11.174,-1.024c0.863,-0.079 1.391,-0.353 1.398,-1.427c0.026,-3.875 -2.223,-6.768 -6.235,-8.006c-2.578,-0.795 -5.225,-1.433 -8.004,-0.827c-1.97,0.429 -3.989,0.624 -5.978,0.97c-3.054,0.532 -5.935,1.63 -8.737,2.911c-2.168,0.99 -4.458,1.832 -5.846,4.023c-1.091,1.721 -1.994,3.539 -1.915,5.587c0.136,3.523 0.466,7.039 0.74,10.556c0.066,0.849 -0.277,1.172 -1.088,1.059c-2.813,-0.39 -5.461,-1.194 -7.343,-3.49c-1.469,-1.791 -0.884,-4.013 0.703,-4.894c1.314,-0.73 2.906,-1.116 4.415,-1.278c1.184,-0.127 0.813,-0.867 0.7,-1.278c-0.116,-0.426 -0.659,-1.017 -1.034,-1.03c-0.772,-0.027 -1.549,0.328 -2.337,0.444c-3.901,0.575 -7.577,1.726 -10.799,4.102c-3.172,2.338 -2.948,5.372 -0.006,7.688c2.522,1.986 5.392,3.133 8.482,3.86c0.744,0.175 1.435,0.652 2.093,1.079c0.2,0.13 0.318,0.579 0.265,0.84c-0.032,0.16 -0.463,0.346 -0.707,0.337c-0.689,-0.028 -1.405,-0.053 -2.057,-0.253c-2.984,-0.918 -5.99,-1.804 -8.495,-3.807c-0.695,-0.555 -1.314,-0.309 -1.674,0.615c-0.829,2.128 -1.597,4.285 -2.535,6.364c-0.927,2.055 -0.636,3.793 0.649,5.617c2.176,3.089 4.935,5.475 8.155,7.357c1.841,1.076 3.738,2.056 5.607,3.086c0.483,0.266 0.952,0.558 1.427,0.839c0.072,-0.653 0.155,-1.304 0.207,-1.958c0.012,-0.146 -0.125,-0.3 -0.129,-0.451c-0.044,-1.591 -0.49,-3.19 0.379,-4.739c1.199,-2.136 2.329,-4.314 3.44,-6.499c2.613,-5.137 5.146,-10.316 7.817,-15.423c1.327,-2.538 2.148,-5.406 4.568,-7.494m-245.198,-229.216c0.128,-0.757 0.357,-1.513 0.365,-2.271c0.043,-3.911 -1.501,-7.298 -3.454,-10.579c-2.72,-4.57 -5.423,-9.154 -7.977,-13.818c-1.926,-3.517 -3.576,-7.17 -6.698,-9.883c-1.989,-1.729 -4.112,-2.928 -6.758,-3.428c-3.909,-0.738 -7.017,2.187 -8.016,4.857c-1.078,2.883 -1.484,5.766 -1.028,8.84c0.51,3.432 1.339,6.719 3.238,9.658c3.085,4.772 6.23,9.507 9.274,14.305c1.579,2.491 3.039,5.062 5.571,6.732c3.004,1.983 6.176,3.164 9.842,1.995c3.221,-1.028 5.143,-3.81 5.641,-6.408m44.5,54.137c-0.17,1.123 -0.283,2.258 -0.521,3.367c-0.506,2.356 -0.394,2.649 1.915,3.667c2.253,0.992 4.62,1.022 6.935,0.424c1.546,-0.399 2.763,-1.34 2.658,-3.278c-0.034,-0.633 0.165,-1.282 0.28,-1.92c0.576,-3.213 1.173,-6.422 1.734,-9.637c0.375,-2.152 0.682,-4.317 1.055,-6.47c0.482,-2.779 1,-5.552 1.5,-8.328c0.4,-2.221 0.798,-4.443 1.191,-6.666c0.373,-2.106 0.749,-4.211 1.101,-6.32c0.367,-2.196 0.686,-4.401 1.063,-6.595c0.477,-2.78 0.991,-5.554 1.491,-8.331c0.399,-2.221 0.911,-4.43 1.147,-6.669c0.096,-0.909 1.035,-2.027 -0.107,-2.841c-3.563,-2.54 -7.418,-3.612 -11.662,-1.925c-0.559,0.222 -1.188,0.898 -1.313,1.468c-0.394,1.782 -0.579,3.611 -0.811,5.427c-0.197,1.546 -0.309,3.103 -0.524,4.646c-0.306,2.208 -0.696,4.404 -1.004,6.612c-0.288,2.064 -0.492,4.139 -0.778,6.203c-0.402,2.896 -0.854,5.785 -1.265,8.679c-0.195,1.376 -0.319,2.761 -0.52,4.135c-0.318,2.164 -0.704,4.318 -1.006,6.484c-0.294,2.106 -0.492,4.225 -0.781,6.331c-0.308,2.25 -0.663,4.494 -1.016,6.738c-0.238,1.517 -0.507,3.029 -0.762,4.799m39.145,7.039c-0.212,-2.129 -0.369,-4.266 -0.651,-6.385c-0.369,-2.773 -0.844,-5.532 -1.259,-8.298c-0.434,-2.892 -0.757,-5.804 -1.302,-8.675c-0.663,-3.496 -1.459,-6.969 -2.282,-10.431c-1.095,-4.611 -2.026,-9.281 -3.475,-13.781c-1.737,-5.393 -3.942,-10.634 -5.961,-15.935c-0.075,-0.197 -0.327,-0.326 -0.497,-0.487c-0.17,0.245 -0.451,0.472 -0.493,0.738c-0.289,1.807 -0.491,3.629 -0.792,5.434c-0.478,2.863 -1.029,5.714 -1.516,8.575c-0.449,2.633 -0.84,5.277 -1.286,7.91c-0.302,1.786 -0.664,3.562 -0.985,5.345c-0.358,1.985 -0.919,3.966 -0.984,5.962c-0.058,1.759 0.458,3.536 0.696,5.308c0.353,2.628 0.706,5.257 1.016,7.89c0.211,1.801 0.309,3.615 0.527,5.414c0.303,2.507 0.703,5.002 1,7.509c0.224,1.884 0.323,3.783 0.537,5.669c0.066,0.579 0.328,1.137 0.511,1.702c0.011,0.034 0.153,0.069 0.168,0.051c0.308,-0.381 0.539,-0.86 0.918,-1.141c2.292,-1.704 4.847,-2.899 7.724,-2.848c3.637,0.065 6.808,1.174 8.299,4.98c0.091,0.232 0.318,0.41 0.482,0.613c0.081,-0.285 0.254,-0.579 0.227,-0.853c-0.136,-1.382 -0.324,-2.76 -0.622,-4.266m-82.497,156.01c-0.085,0.221 -0.199,0.435 -0.251,0.663c-0.856,3.783 -1.64,7.584 -2.574,11.348c-0.851,3.43 -1.932,6.791 -1.537,10.422c0.25,2.302 0.685,4.508 1.809,6.551c2.082,3.78 5.513,5.345 9.405,3.892c2.513,-0.938 4.45,-2.669 6.017,-4.835c1.883,-2.604 3.404,-5.379 3.955,-8.593c0.295,-1.722 0.493,-3.46 0.777,-5.183c0.578,-3.51 1.439,-6.994 1.718,-10.526c0.388,-4.911 -0.342,-9.655 -3.491,-13.753c-1.534,-1.996 -4.554,-3.506 -7.188,-2.545c-3.146,1.148 -5.114,3.487 -6.546,6.268c-0.965,1.874 -1.414,4.014 -2.094,6.291m54.828,-271.066c-0.18,1.205 -0.292,2.425 -0.558,3.611c-0.387,1.73 -0.278,2.088 1.176,2.899c4.531,2.528 8.101,6.195 11.306,10.161c2.151,2.663 3.795,5.739 5.681,8.621c0.121,0.186 0.355,0.368 0.561,0.403c0.125,0.021 0.37,-0.214 0.438,-0.384c0.366,-0.915 0.733,-1.832 1.025,-2.773c1.067,-3.44 2.303,-6.845 3.094,-10.35c0.75,-3.322 1.242,-6.739 1.446,-10.139c0.237,-3.948 0.069,-7.902 -0.655,-11.847c-0.718,-3.915 -1.811,-7.619 -4.27,-10.768c-1.154,-1.478 -2.838,-2.436 -4.749,-2.292c-1.716,0.129 -3.252,0.929 -4.591,2.137c-3.998,3.608 -6.09,8.342 -7.837,13.26c-0.835,2.349 -1.387,4.8 -2.067,7.461m11.986,206.307c0.601,0.688 1.129,1.462 1.815,2.051c3.014,2.585 6.934,2.399 8.795,-1.465c1.336,-2.776 1.549,-5.751 1.115,-8.785c-0.489,-3.424 -2.453,-6.158 -4.144,-9.025c-1.776,-3.012 -3.56,-6.02 -5.277,-9.066c-1.827,-3.242 -3.559,-6.539 -5.385,-9.782c-0.286,-0.507 -0.779,-1.113 -1.485,-0.318c-0.235,0.265 -0.581,0.431 -0.876,0.642c-2.78,1.979 -5.932,1.864 -7.865,-0.47c-0.824,-0.995 -1.34,-1.158 -2.447,-0.542c-2.17,1.207 -2.332,1.193 -1.306,3.498c1.957,4.393 3.986,8.757 6.14,13.055c2.798,5.583 5.73,11.098 8.643,16.621c0.631,1.198 1.428,2.308 2.277,3.586m-30.602,-5.119c0.085,-0.307 0.193,-0.608 0.251,-0.919c0.856,-4.594 1.655,-9.2 2.568,-13.782c0.862,-4.32 1.854,-8.613 2.739,-12.929c0.053,-0.256 -0.372,-0.884 -0.519,-0.867c-1.276,0.151 -2.531,0.533 -3.806,0.61c-2.165,0.129 -4.339,0.086 -6.509,0.114c-0.773,0.01 -1.609,-0.113 -1.865,0.935c-0.764,3.138 -1.537,6.273 -2.293,9.413c-1.112,4.615 -2.243,9.226 -3.302,13.854c-0.431,1.885 -1.108,3.848 -0.931,5.705c0.226,2.371 1.168,4.681 1.865,6.999c1.546,5.146 3.355,10.193 5.758,15.01c0.299,0.599 0.545,1.223 0.815,1.836c0.213,-0.721 0.487,-1.431 0.628,-2.167c0.477,-2.495 0.879,-5.006 1.363,-7.5c0.627,-3.23 1.309,-6.45 1.962,-9.676c0.43,-2.126 0.851,-4.254 1.276,-6.636m152.627,-178.28c-1.88,-0.312 -3.731,-0.739 -5.677,-0.278c-2.222,0.525 -3.958,1.491 -4.661,3.848c-0.674,2.261 -0.104,4.401 0.893,6.324c1.191,2.299 2.556,4.582 4.241,6.527c1.694,1.956 3.873,3.489 5.84,5.206c0.618,0.54 1.432,0.966 1.814,1.639c0.532,0.936 1.106,0.94 1.871,0.535c5.675,-3.007 11.712,-4.65 18.127,-4.845c0.903,-0.027 0.885,-0.345 0.549,-1c-2.53,-4.931 -6.215,-8.83 -10.647,-12.068c-3.68,-2.689 -7.731,-4.612 -12.35,-5.888m-131.078,220.642c3.394,-1.678 6.15,-4.096 8.564,-7.02c4.426,-5.362 7.285,-11.544 9.655,-17.993c1.103,-2.998 2.063,-6.05 3.066,-9.085c0.15,-0.454 0.189,-0.948 0.255,-1.427c0.013,-0.095 -0.089,-0.206 -0.138,-0.31c-0.121,0.073 -0.268,0.124 -0.358,0.226c-0.188,0.212 -0.402,0.427 -0.507,0.682c-1.128,2.734 -4.644,4.158 -7.785,2.982c-1.818,-0.68 -3.236,-1.8 -4.584,-3.105c-0.178,-0.173 -0.416,-0.282 -0.626,-0.421c-0.091,0.218 -0.217,0.428 -0.269,0.655c-0.309,1.365 -0.507,2.764 -0.917,4.097c-1.739,5.652 -4.164,10.988 -7.228,16.054c-2.993,4.946 -6.232,9.666 -10.669,13.44c-0.7,0.595 -0.752,0.992 0.185,1.352c3.72,1.431 7.42,1.679 11.356,-0.127m117.69,-128.366c-1.967,4.204 -2.229,8.535 -0.838,12.943c0.242,0.769 0.639,1.378 1.894,1.077c2.128,-0.511 4.361,-0.592 6.551,-0.835c1.671,-0.186 3.348,-0.314 5.015,-0.523c2.498,-0.313 4.987,-0.695 7.484,-1.009c1.667,-0.209 3.347,-0.319 5.014,-0.528c2.498,-0.313 4.984,-0.727 7.486,-0.991c1.144,-0.121 2.17,-0.357 2.925,-1.267c1.26,-1.518 2.49,-3.06 3.743,-4.584c0.595,-0.722 0.482,-1.321 -0.197,-1.931c-1.966,-1.766 -4.396,-2.353 -6.886,-2.43c-2.26,-0.069 -4.542,0.212 -6.798,0.48c-3.484,0.413 -6.689,1.694 -9.547,3.709c-1.285,0.905 -2.308,2.176 -3.528,3.185c-0.379,0.314 -1.019,0.31 -1.539,0.451c-0.066,-0.407 -0.317,-0.908 -0.167,-1.205c1.13,-2.229 1.926,-4.529 2.171,-7.045c0.124,-1.279 -0.17,-1.881 -1.463,-1.926c-2.727,-0.095 -5.457,-0.131 -8.181,-0.277c-1.321,-0.071 -2.178,0.387 -2.638,1.634c-0.109,0.294 -0.331,0.545 -0.501,1.072m-100.732,71.158c0.541,0.798 1.152,1.559 1.611,2.403c1.986,3.65 4.466,7.136 4.015,11.642c-0.021,0.213 0.182,0.448 0.28,0.673c0.157,-0.217 0.42,-0.419 0.451,-0.652c0.129,-0.983 0.142,-1.981 0.282,-2.961c0.488,-3.416 1.086,-6.818 1.5,-10.243c0.361,-2.994 0.603,-6.008 0.767,-9.02c0.173,-3.158 0.202,-6.325 0.27,-9.489c0.031,-1.463 0.035,-2.929 -0.002,-4.393c-0.059,-2.311 -0.109,-4.625 -0.299,-6.927c-0.033,-0.398 -0.738,-1.049 -1.134,-1.05c-1.076,-0.002 -2.153,0.28 -3.23,0.453c-2.111,0.34 -4.228,0.649 -6.33,1.041c-0.746,0.14 -1.395,0.49 -1.507,1.438c-0.307,2.592 -0.54,5.204 -1.051,7.758c-0.393,1.966 -0.993,3.937 -1.84,5.746c-0.394,0.843 -0.465,1.435 -0.081,2.124c2.082,3.743 4.196,7.469 6.298,11.457m24.227,41.466c-0.33,-0.502 -0.627,-1.03 -0.996,-1.502c-2.038,-2.607 -4.091,-5.203 -6.153,-7.793c-0.118,-0.149 -0.39,-0.32 -0.525,-0.276c-0.194,0.063 -0.426,0.292 -0.469,0.488c-0.138,0.634 -0.119,1.307 -0.298,1.926c-1.987,6.882 -4.015,13.753 -5.974,20.643c-0.128,0.451 0.049,1.173 0.358,1.532c1.284,1.498 2.6,2.984 4.039,4.329c2.448,2.289 5.041,4.425 8.431,5.154c3.622,0.779 5.63,-0.286 6.651,-3.795c0.649,-2.23 0.475,-4.537 0.067,-6.856c-0.858,-4.872 -2.672,-9.348 -5.131,-13.85m-77.78,-118.512c-0.085,0.861 -0.174,1.721 -0.254,2.582c-0.173,1.848 -0.335,3.698 -0.513,5.546c-0.248,2.582 -0.536,5.161 -0.722,7.747c-0.019,0.276 0.525,0.835 0.824,0.846c0.938,0.037 1.883,-0.199 2.825,-0.198c3.186,0.004 6.375,0.001 9.557,0.13c1.574,0.063 3.136,0.412 4.705,0.623c0.731,0.098 0.959,-0.274 0.926,-0.964c-0.104,-2.182 -0.069,-4.377 -0.299,-6.544c-0.162,-1.528 -0.428,-3.028 -1.424,-4.402c-1.441,-1.99 -2.606,-4.186 -3.823,-6.332c-1.504,-2.653 -2.973,-5.328 -4.397,-8.025c-1.402,-2.654 -2.726,-5.35 -4.097,-8.021c-0.103,-0.201 -0.308,-0.349 -0.466,-0.521c-0.166,0.197 -0.452,0.381 -0.477,0.594c-0.076,0.669 0.024,1.362 -0.084,2.023c-0.389,2.388 -0.876,4.761 -1.25,7.152c-0.39,2.496 -0.691,5.005 -1.031,7.764m195.597,109.809c-2.761,-1.235 -5.538,-2.436 -8.279,-3.715c-3.511,-1.638 -6.538,-4.003 -9.364,-6.616c-0.874,-0.807 -1.403,-0.63 -2.05,0.145c-1.403,1.68 -2.797,3.369 -4.24,5.013c-0.973,1.108 -1.091,1.694 -0.252,2.892c0.449,0.641 0.975,1.237 1.526,1.795c3.979,4.032 8.698,6.746 14.136,8.362c4.273,1.269 8.517,1.941 12.967,1.235c3.172,-0.502 5.203,-2.16 6.065,-5.325c0.294,-1.077 -0.18,-1.767 -1.309,-1.86c-0.464,-0.038 -0.953,0.079 -1.398,-0.02c-2.563,-0.569 -5.117,-1.181 -7.802,-1.906m-157.09,-101.618c-2.357,-1.091 -4.009,-0.773 -5.83,0.973c-2.687,2.577 -3.876,5.934 -4.849,9.371c-0.556,1.964 -0.657,1.62 1.293,2.773c1.61,0.953 3.156,2.018 4.778,2.95c0.402,0.23 0.989,0.167 1.492,0.18c0.991,0.024 2.171,-0.339 2.936,0.079c1.562,0.855 2.544,2.401 3.24,4.068c1.129,2.703 1.756,5.498 1.528,8.447c-0.053,0.676 0.167,1.099 0.907,0.97c0.744,-0.13 1.495,-0.277 2.203,-0.529c0.292,-0.105 0.694,-0.509 0.686,-0.765c-0.124,-3.94 -0.003,-7.922 -0.571,-11.801c-0.489,-3.345 -1.622,-6.627 -2.76,-9.833c-0.952,-2.68 -2.465,-5.105 -5.053,-6.883m177.109,-92.019c1.219,-0.541 2.534,-0.934 3.642,-1.649c5.104,-3.295 9.36,-7.462 12.667,-12.609c0.504,-0.784 0.345,-0.91 -0.324,-1.19c-2.135,-0.893 -4.274,-1.78 -6.381,-2.734c-2.79,-1.263 -2.771,-1.282 -4.882,0.896c-3.473,3.585 -6.965,7.153 -10.434,10.742c-0.899,0.93 -1.759,1.899 -2.604,2.88c-0.224,0.259 -0.468,0.631 -0.457,0.944c0.045,1.386 1.705,3.105 3.135,3.502c1.944,0.54 3.715,-0.089 5.638,-0.782m-166.653,92.019c-1.025,0.602 -2.1,1.133 -3.063,1.822c-1.562,1.118 -1.684,1.824 -0.982,3.346c1.488,3.223 2.574,6.578 3.02,10.117c0.287,2.277 0.905,2.907 2.615,2.501c5.819,-1.384 10.23,-6.53 9.88,-12.218c-0.184,-2.997 -1.817,-4.985 -4.236,-5.937c-2.379,-0.937 -4.765,-0.672 -7.234,0.369m82.88,186.086c0.542,-0.128 1.098,-0.215 1.619,-0.401c0.259,-0.092 0.453,-0.366 0.676,-0.558c-0.265,-0.149 -0.533,-0.434 -0.795,-0.428c-4.228,0.085 -8.403,-0.406 -12.572,-1.037c-2.528,-0.382 -5.091,-0.568 -7.596,-1.06c-3.787,-0.744 -7.555,-1.611 -11.3,-2.549c-4.012,-1.006 -8.043,-2.014 -11.681,-4.092c-1.043,-0.596 -1.701,0.088 -2.355,0.586c-0.65,0.496 -0.799,1.208 -0.439,2.076c0.75,1.811 2.283,2.739 3.893,3.469c3.465,1.57 7.084,2.71 10.843,3.352c3.573,0.609 7.131,1.393 10.73,1.738c3.549,0.341 7.142,0.268 10.716,0.287c1.081,0.006 2.166,-0.275 3.245,-0.447c1.631,-0.259 3.259,-0.538 5.016,-0.936m-68.599,-163.049c-0.085,-1.115 -0.198,-2.23 -0.249,-3.347c-0.105,-2.308 -0.188,-4.617 -0.256,-6.926c-0.031,-1.079 0.003,-2.16 -0.012,-3.24c-0.003,-0.237 -0.051,-0.489 -0.147,-0.703c-0.084,-0.189 -0.262,-0.336 -0.398,-0.502c-0.071,0.167 -0.158,0.329 -0.211,0.502c-0.243,0.794 -0.386,1.634 -0.729,2.381c-2.185,4.766 -5.776,7.689 -11.046,8.393c-0.647,0.086 -1.07,0.388 -0.887,1.257c0.456,2.169 0.853,4.354 1.158,6.548c0.134,0.962 0.616,1.256 1.424,1.129c3.105,-0.485 6.207,-0.995 9.304,-1.531c2.053,-0.355 2.049,-0.381 2.049,-2.554c-0,-0.384 -0,-0.767 -0,-1.407m-36.085,-91.251c0.445,0.406 0.89,0.813 1.335,1.219c-0.104,-0.662 -0.232,-1.321 -0.306,-1.987c-0.055,-0.492 -0.256,-1.202 -0.016,-1.451c0.818,-0.853 1.688,-1.856 2.742,-2.242c3.739,-1.368 7.505,-1.588 11.095,0.613c0.215,0.132 0.504,0.144 0.759,0.211c-0.07,-0.291 -0.049,-0.664 -0.224,-0.86c-1.894,-2.114 -3.701,-4.325 -5.768,-6.256c-1.895,-1.771 -4.339,-2.731 -6.945,-2.513c-3.622,0.303 -6.34,2.452 -8.709,5.047c-0.189,0.206 -0.128,0.916 0.082,1.173c1.909,2.333 3.877,4.618 5.955,7.046m-25.884,144.492c0.595,-2.395 1.21,-4.785 1.781,-7.185c0.951,-3.997 1.84,-8.009 2.834,-11.994c0.24,-0.961 0.043,-1.201 -0.904,-1.467c-2.344,-0.658 -4.632,-1.519 -6.938,-2.31c-0.278,-0.095 -0.532,-0.261 -0.797,-0.393c-0.104,0.34 -0.305,0.684 -0.294,1.02c0.039,1.16 0.157,2.316 0.237,3.474c0.173,2.529 0.238,5.07 0.536,7.583c0.41,3.465 1.008,6.907 1.499,10.362c0.207,1.458 0.326,2.929 0.534,4.387c0.039,0.266 0.317,0.498 0.484,0.746c0.088,-0.235 0.2,-0.465 0.259,-0.707c0.264,-1.085 0.514,-2.173 0.769,-3.516m142.937,112.752c0.778,0.17 1.551,0.452 2.336,0.493c3.427,0.177 6.849,0.011 10.136,-1.035c2.094,-0.667 4.131,-1.544 5.647,-3.294c0.781,-0.9 0.862,-1.827 0.257,-2.785c-0.624,-0.987 -1.41,-0.814 -2.448,-0.471c-2.403,0.792 -4.855,1.596 -7.348,1.908c-3.421,0.428 -6.897,0.408 -10.35,0.574c-0.423,0.02 -0.874,-0.087 -1.267,0.024c-0.581,0.164 -1.588,0.466 -1.591,0.718c-0.006,0.655 0.252,1.571 0.735,1.92c1.108,0.796 2.413,1.316 3.893,1.948m83.262,-20.861c0.586,-0.332 1.156,-0.695 1.76,-0.991c3.795,-1.856 7.88,-2.555 12.028,-2.969c1.362,-0.136 2.755,-0.053 4.096,-0.29c2.693,-0.475 5.339,-0.25 7.98,0.271c1.522,0.301 3.026,0.699 4.545,1.023c0.216,0.046 0.495,-0.032 0.688,-0.147c0.065,-0.039 -0,-0.399 -0.086,-0.572c-0.876,-1.764 -3.197,-2.869 -5.022,-2.617c-3.036,0.418 -6.088,0.714 -9.136,1.04c-1.797,0.193 -3.6,0.323 -5.396,0.522c-2.921,0.322 -5.843,0.985 -8.755,0.939c-3.517,-0.055 -5.83,1.635 -7.501,4.326c-1.536,2.473 -2.681,5.188 -4.009,7.792c-3.301,6.475 -6.612,12.945 -9.902,19.426c-0.211,0.417 -0.314,0.9 -0.401,1.364c-0.041,0.219 0.076,0.468 0.122,0.703c0.21,-0.164 0.495,-0.284 0.615,-0.498c0.623,-1.102 1.195,-2.232 1.8,-3.344c1.588,-2.923 3.182,-5.842 4.777,-8.761c1.861,-3.406 3.958,-6.708 5.516,-10.248c1.345,-3.053 3.424,-5.176 6.281,-6.969m-190.752,-183.015c-0.085,0.604 -0.163,1.21 -0.256,1.812c-0.422,2.723 -0.789,5.455 -1.294,8.162c-0.35,1.876 -0.44,1.884 1.173,2.182c1.92,0.354 3.651,1.03 4.912,2.622c0.127,0.159 0.353,0.239 0.533,0.356c0.096,-0.258 0.306,-0.535 0.27,-0.772c-0.309,-1.995 -0.72,-3.975 -0.989,-5.975c-0.393,-2.921 -0.741,-5.849 -1.021,-8.783c-0.31,-3.256 -0.513,-6.522 -0.793,-9.782c-0.028,-0.328 -0.264,-0.638 -0.404,-0.956c-0.2,0.3 -0.534,0.581 -0.579,0.903c-0.297,2.148 -0.493,4.309 -0.802,6.455c-0.17,1.185 -0.495,2.348 -0.75,3.776m108.892,20.221c0.17,1.931 0.268,3.872 0.542,5.788c0.127,0.886 0.551,1.758 1.795,1.514c1.026,-0.202 2.066,-0.335 3.095,-0.524c0.458,-0.085 0.716,-0.112 0.533,-0.861c-0.442,-1.804 -0.68,-3.672 -0.832,-5.529c-0.091,-1.1 0.106,-2.229 0.229,-3.339c0.272,-2.444 0.766,-4.818 2.325,-6.827c0.136,-0.175 0.149,-0.446 0.219,-0.673c-0.223,-0.057 -0.444,-0.158 -0.668,-0.163c-0.806,-0.02 -1.616,0.041 -2.417,-0.021c-0.982,-0.076 -1.511,0.322 -2.075,1.164c-1.88,2.809 -2.287,6.009 -2.746,9.471m-107.999,46.97c0.825,-0.572 1.717,-1.07 2.463,-1.732c1.846,-1.64 3.005,-3.775 4.04,-5.982c0.335,-0.713 0.67,-1.427 1.018,-2.134c0.11,-0.222 0.263,-0.423 0.397,-0.634c-0.303,-0.09 -0.625,-0.297 -0.906,-0.25c-2.377,0.394 -4.752,0.804 -7.11,1.298c-0.317,0.066 -0.766,0.63 -0.757,0.953c0.059,2.208 -0.985,3.81 -2.525,5.239c-1.357,1.26 -1.169,2.258 0.636,2.993c0.741,0.302 1.654,0.179 2.744,0.249m149.567,141.932c-0.021,0.321 -0.188,0.775 -0.038,0.94c0.87,0.961 1.658,2.23 2.766,2.7c3.098,1.315 6.333,2.308 9.531,3.378c0.424,0.142 0.944,-0.002 1.419,-0.014c-0.346,-0.244 -0.668,-0.536 -1.041,-0.725c-3.38,-1.719 -6.358,-3.973 -8.791,-6.885c-1.008,-1.207 -1.229,-1.4 -2.597,-0.63c-0.456,0.257 -0.835,0.65 -1.249,1.236m-141.279,-148.715c-0.595,1.072 -1.063,2.247 -1.819,3.189c-0.879,1.096 -0.71,1.956 0.017,2.979c0.43,0.603 0.676,1.335 1.05,1.983c0.107,0.187 0.381,0.407 0.556,0.389c0.166,-0.018 0.365,-0.303 0.441,-0.511c1.341,-3.648 1.665,-7.508 2.278,-11.306c0.06,-0.37 -0.254,-0.8 -0.394,-1.203c-0.285,0.308 -0.673,0.569 -0.835,0.932c-0.479,1.076 -0.869,2.192 -1.294,3.548Z" style="fill-rule:nonzero;"/><path id="path11" d="M293.49,198.417c1.693,1.274 2.786,2.893 3.364,4.805c1.923,6.352 -0.949,12.169 -7.183,14.409c-4.389,1.577 -8.742,1.002 -12.587,-2.11c-3.454,-2.796 -4.699,-6.439 -4.134,-10.647c0.485,-3.613 2.613,-6.295 5.819,-8.055c4.155,-2.28 8.349,-2.035 12.515,-0.069c0.79,0.373 1.432,1.061 2.206,1.667m0.319,13.886c0.255,-0.448 0.53,-0.886 0.762,-1.346c2.025,-4.007 0.991,-8.199 -2.095,-10.909c-3.803,-3.342 -8.479,-4.081 -13.007,-1.409c-4.09,2.412 -5.721,6.504 -4.448,10.57c1.496,4.779 5.083,6.945 9.778,7.275c3.589,0.252 6.568,-1.272 9.01,-4.181Z" style="fill-rule:nonzero;"/><path id="path13" d="M264.673,229.005c-1.429,2.152 -3.067,3.977 -5.335,5.082c-3.932,1.915 -8.611,1.612 -11.325,-1.464c-1.786,-2.024 -2.298,-4.325 -1.965,-7.06c0.292,-2.405 1.371,-4.342 2.851,-5.967c2.071,-2.274 4.692,-3.738 7.934,-3.861c2.662,-0.101 5.051,0.455 6.871,2.479c1.253,1.394 2.051,3.009 2.093,5.015c0.041,2.009 -0.223,3.898 -1.124,5.776m-14.089,-8.383c-1.665,1.871 -2.777,3.947 -2.689,6.564c0.14,4.145 3.416,6.515 6.922,6.168c3.986,-0.394 7.033,-2.582 8.552,-6.402c2.141,-5.387 -1.501,-9.411 -6.096,-9.357c-2.503,0.029 -4.729,1.122 -6.689,3.027Z" style="fill-rule:nonzero;"/><path id="path15" d="M234.326,101.791c1.074,-0.704 2.025,-1.477 3.105,-1.958c2.557,-1.138 4.264,0.917 4.345,3.129c0.145,3.994 -1.33,7.559 -3.235,10.917c-1.228,2.165 -2.65,4.291 -4.343,6.094c-1.315,1.4 -3.051,2.671 -4.842,3.281c-2.179,0.742 -3.669,-0.766 -3.876,-3.476c-0.182,-2.389 0.498,-4.671 1.355,-6.844c1.496,-3.793 3.704,-7.181 6.371,-10.258c0.287,-0.331 0.701,-0.55 1.12,-0.885Z" style="fill-rule:nonzero;"/><path id="path17" d="M289.219,124.635c2.519,0.677 4.709,1.752 6.643,3.33c0.644,0.526 1.695,1.132 1.076,1.992c-0.624,0.867 -1.482,0.122 -2.208,-0.405c-2.369,-1.72 -4.906,-2.998 -7.886,-3.412c-4.546,-0.631 -8.331,0.729 -11.562,3.899c-0.225,0.221 -0.516,0.499 -0.791,0.516c-0.458,0.029 -0.928,-0.133 -1.392,-0.214c0.075,-0.382 0.028,-0.865 0.246,-1.128c1.833,-2.208 4.222,-3.686 6.893,-4.533c2.82,-0.896 5.765,-0.759 8.672,-0.219c0.069,0.013 0.121,0.114 0.309,0.174Z" style="fill-rule:nonzero;"/></g><g id="Title"><g id="Source-Code-Pro" serif:id="Source Code Pro" transform="matrix(0.760171,0,0,0.760171,-678.857,2.78711)"><text x="1434.54px" y="189.564px" style="font-family:'SourceCodePro-Light', 'Source Code Pro', monospace;font-weight:300;font-size:288px;">SOME</text><text x="1434.54px" y="477.564px" style="font-family:'SourceCodePro-Light', 'Source Code Pro', monospace;font-weight:300;font-size:288px;">BLOG</text></g></g></svg>